<svg width="1024" height="1024" viewBox="0 0 1024 1024" fill="none" xmlns="http://www.w3.org/2000/svg" role="img" aria-labelledby="title desc">
  <title id="title">FundScope app icon</title>
  <desc id="desc">FundScope shield and scope mark for app stores and home screen icons.</desc>
  <rect width="1024" height="1024" rx="232" fill="#080B16"/>
  <rect x="40" y="40" width="944" height="944" rx="204" fill="url(#bg)"/>
  <path d="M176 248h672M176 512h672M176 776h672M248 176v672M512 176v672M776 176v672" stroke="white" stroke-opacity=".055" stroke-width="10" stroke-linecap="round"/>
  <path d="M512 146 768 252.3v214.5c0 165.9-105.5 296.6-256 354.2C361.5 763.4 256 632.7 256 466.8V252.3L512 146Z" fill="#0F1429" fill-opacity=".52" stroke="white" stroke-opacity=".18" stroke-width="18"/>
  <circle cx="512" cy="500" r="236" stroke="white" stroke-opacity=".64" stroke-width="46"/>
  <circle cx="512" cy="500" r="118" stroke="white" stroke-opacity=".19" stroke-width="32"/>
  <path d="M648 364 560.2 560.2 364 648l87.8-196.2L648 364Z" fill="#FFCA5C" stroke="white" stroke-width="34" stroke-linejoin="round"/>
  <path d="M512 218v96M512 686v96M230 500h96M698 500h96" stroke="white" stroke-width="46" stroke-linecap="round"/>
  <defs>
    <linearGradient id="bg" x1="80" y1="52" x2="926" y2="970" gradientUnits="userSpaceOnUse">
      <stop stop-color="#8A82FF"/>
      <stop offset=".45" stop-color="#4F46E5"/>
      <stop offset="1" stop-color="#171B35"/>
    </linearGradient>
  </defs>
</svg>
